<svg xmlns="http://www.w3.org/2000/svg" xmlns:xlink="http://www.w3.org/1999/xlink">
  <circle cx="100" cy="100" r="100" fill="red" />
  <rect x="300" y="50" width="100" height="100" fill="blue" />
  <ellipse cx="100" cy="300" rx="100" ry="50" fill="green" />
  <line x1="300" y1="250" x2="400" y2="350" stroke="black" />
  <polyline points="100,440 120,400 160,400 180,440 160,480 120,480"
            stroke="#c44" fill="none" />
  <polygon points="200,440 220,400 260,400 280,440 260,480 220,480"
           stroke="#44c" fill="none" />
  <path d="M 10,600 A 100,100 45 0 1 210,600"
        stroke="#000" fill="#cc4" />
  <path d="M 310,550 c 40,0 -40,80 0,80 40,0 -40,-80 0,-80"
        stroke="red" fill="#4cc" />
</svg>
